<svg width="36" height="36" viewBox="0 0 36 36" fill="none" xmlns="http://www.w3.org/2000/svg">
<path d="M9.77612 11.9115V9.65104C9.77612 8.40265 10.7881 7.39062 12.0365 7.39062H18.8178H25.599C26.8475 7.39062 27.8595 8.40265 27.8595 9.65104V11.9115V23.2135V25.474C27.8595 26.7224 26.8475 27.7344 25.599 27.7344H18.8178H12.0365C10.7881 27.7344 9.77612 26.7224 9.77612 25.474V23.2135V11.9115Z" stroke="#9E9E9E" stroke-width="2.26042" stroke-linecap="round" stroke-linejoin="round"/>
<path d="M22.2083 17.5625C22.2083 19.4351 20.6903 20.9531 18.8176 20.9531C16.945 20.9531 15.427 19.4351 15.427 17.5625C15.427 15.6899 16.945 14.1719 18.8176 14.1719C20.6903 14.1719 22.2083 15.6899 22.2083 17.5625Z" stroke="#9E9E9E" stroke-width="2.26042"/>
<path d="M14.2969 27.7344C14.7777 25.1268 16.0148 24.3438 18.8177 24.3438C21.6206 24.3438 22.8576 25.0699 23.3385 27.6775" stroke="#9E9E9E" stroke-width="2.26042" stroke-linecap="round"/>
<path d="M7.51562 11.9114H9.77604" stroke="#9E9E9E" stroke-width="2.26042" stroke-linecap="round" stroke-linejoin="round"/>
<path d="M7.51562 23.2136H9.77604" stroke="#9E9E9E" stroke-width="2.26042" stroke-linecap="round" stroke-linejoin="round"/>
<path d="M7.51562 17.5625H9.77604" stroke="#9E9E9E" stroke-width="2.26042" stroke-linecap="round" stroke-linejoin="round"/>
</svg>
