<svg width="36" height="36" viewBox="0 0 36 36" fill="none" xmlns="http://www.w3.org/2000/svg">
<path d="M17.1281 22.0906L23.8375 15.3813L22.1453 13.6891L17.1281 18.7063L14.6344 16.2125L12.9422 17.9047L17.1281 22.0906ZM18.375 29.75C15.624 29.0573 13.3529 27.4789 11.5617 25.0148C9.77057 22.5508 8.875 19.8146 8.875 16.8063V9.5625L18.375 6L27.875 9.5625V16.8063C27.875 19.8146 26.9794 22.5508 25.1883 25.0148C23.3971 27.4789 21.126 29.0573 18.375 29.75ZM18.375 27.2563C20.4333 26.6031 22.1354 25.2969 23.4812 23.3375C24.8271 21.3781 25.5 19.201 25.5 16.8063V11.1953L18.375 8.52344L11.25 11.1953V16.8063C11.25 19.201 11.9229 21.3781 13.2688 23.3375C14.6146 25.2969 16.3167 26.6031 18.375 27.2563Z" fill="#9E9E9E"/>
</svg>
