<svg width="19" height="19" viewBox="0 0 19 19" fill="none" xmlns="http://www.w3.org/2000/svg">
<path d="M17.9202 18.9999L15.2597 16.3394H2.46625V14.0946C2.46625 13.6 2.60057 13.1421 2.8692 12.7207C3.13784 12.2993 3.49677 11.9753 3.946 11.7487C4.76809 11.3422 5.59634 11.0244 6.43073 10.7952C7.26512 10.5661 8.10566 10.4153 8.95235 10.3428C9.00414 10.3428 9.05755 10.3428 9.11257 10.3428C9.1676 10.3428 9.221 10.346 9.27279 10.3525L0 1.07969L1.07969 0L18.9999 17.9202L17.9202 18.9999ZM3.98093 14.8247H13.745L10.7642 11.8439C10.6334 11.8309 10.5127 11.8196 10.402 11.8099C10.2913 11.8002 10.1706 11.7953 10.0398 11.7953C9.11672 11.7953 8.20368 11.9057 7.30068 12.1264C6.39768 12.3471 5.51119 12.6718 4.6412 13.1003C4.43794 13.2103 4.27708 13.3524 4.15862 13.5266C4.04016 13.7007 3.98093 13.89 3.98093 14.0946V14.8247ZM16.3472 11.8556C16.6475 12.0005 16.8857 12.2206 17.0618 12.5158C17.2379 12.8109 17.3311 13.1294 17.3414 13.4712L15.2598 11.3895C15.4462 11.462 15.63 11.5345 15.8112 11.607C15.9925 11.6795 16.1711 11.7623 16.3472 11.8556ZM11.9992 8.06096L10.8884 6.95019C11.2431 6.78578 11.527 6.53753 11.74 6.20546C11.9529 5.87339 12.0594 5.50992 12.0594 5.11506C12.0594 4.55967 11.8617 4.08422 11.4661 3.68871C11.0706 3.2932 10.5952 3.09544 10.0398 3.09544C9.64493 3.09544 9.28146 3.20193 8.94939 3.41489C8.61732 3.62786 8.36908 3.9117 8.20466 4.26643L7.09389 3.15566C7.4292 2.65465 7.85415 2.26691 8.36876 1.99245C8.88337 1.718 9.44038 1.58077 10.0398 1.58077C11.0146 1.58077 11.8474 1.92611 12.5381 2.61678C13.2287 3.30746 13.5741 4.14022 13.5741 5.11506C13.5741 5.71447 13.4369 6.27148 13.1624 6.78609C12.8879 7.3007 12.5002 7.72565 11.9992 8.06096ZM13.745 14.8247H3.98093C3.98093 14.8247 4.04016 14.8247 4.15862 14.8247C4.27708 14.8247 4.43794 14.8247 4.6412 14.8247C5.07619 14.8247 5.52478 14.8247 5.98696 14.8247C6.44914 14.8247 6.96731 14.8247 7.54147 14.8247C8.11563 14.8247 8.76553 14.8247 9.49115 14.8247C10.2168 14.8247 11.0521 14.8247 11.9972 14.8247C12.1072 14.8247 12.2124 14.8247 12.3128 14.8247C12.4131 14.8247 12.5183 14.8247 12.6284 14.8247H13.745Z" fill="#434655"/>
</svg>
