<svg width="19" height="21" viewBox="0 0 19 21" fill="none" xmlns="http://www.w3.org/2000/svg">
<path d="M1.74998 20.3845V18.8845H17.2499V20.3845H1.74998ZM1.74998 1.49996V0H17.2499V1.49996H1.74998ZM9.49996 11.6923C10.2628 11.6923 10.9118 11.4247 11.4471 10.8894C11.9823 10.3542 12.2499 9.70512 12.2499 8.9423C12.2499 8.17949 11.9823 7.53045 11.4471 6.9952C10.9118 6.45995 10.2628 6.19232 9.49996 6.19232C8.73715 6.19232 8.08811 6.45995 7.55286 6.9952C7.01761 7.53045 6.74998 8.17949 6.74998 8.9423C6.74998 9.70512 7.01761 10.3542 7.55286 10.8894C8.08811 11.4247 8.73715 11.6923 9.49996 11.6923ZM1.80768 17.6922C1.30255 17.6922 0.874992 17.5172 0.524995 17.1672C0.174998 16.8172 0 16.3897 0 15.8845V4.49996C0 3.99484 0.174998 3.56728 0.524995 3.21728C0.874992 2.86728 1.30255 2.69229 1.80768 2.69229H17.1922C17.6974 2.69229 18.1249 2.86728 18.4749 3.21728C18.8249 3.56728 18.9999 3.99484 18.9999 4.49996V15.8845C18.9999 16.3897 18.8249 16.8172 18.4749 17.1672C18.1249 17.5172 17.6974 17.6922 17.1922 17.6922H1.80768ZM3.90386 16.1922C4.65386 15.3871 5.50129 14.7692 6.44615 14.3384C7.39101 13.9077 8.40895 13.6923 9.49996 13.6923C10.591 13.6923 11.6089 13.9077 12.5538 14.3384C13.4986 14.7692 14.3461 15.3871 15.0961 16.1922H17.1922C17.2692 16.1922 17.3397 16.1602 17.4038 16.0961C17.4679 16.032 17.5 15.9615 17.5 15.8845V4.49996C17.5 4.42303 17.4679 4.35252 17.4038 4.28841C17.3397 4.2243 17.2692 4.19225 17.1922 4.19225H1.80768C1.73075 4.19225 1.66023 4.2243 1.59612 4.28841C1.53202 4.35252 1.49996 4.42303 1.49996 4.49996V15.8845C1.49996 15.9615 1.53202 16.032 1.59612 16.0961C1.66023 16.1602 1.73075 16.1922 1.80768 16.1922H3.90386ZM6.19996 16.1922H12.8C12.3166 15.8589 11.7958 15.6089 11.2375 15.4422C10.6791 15.2756 10.1 15.1922 9.49996 15.1922C8.89996 15.1922 8.3208 15.2756 7.76246 15.4422C7.20413 15.6089 6.6833 15.8589 6.19996 16.1922ZM9.49996 10.1923C9.15252 10.1923 8.85733 10.0708 8.61437 9.82789C8.37142 9.58494 8.24994 9.28974 8.24994 8.9423C8.24994 8.59486 8.37142 8.29967 8.61437 8.05671C8.85733 7.81376 9.15252 7.69229 9.49996 7.69229C9.8474 7.69229 10.1426 7.81376 10.3856 8.05671C10.6285 8.29967 10.75 8.59486 10.75 8.9423C10.75 9.28974 10.6285 9.58494 10.3856 9.82789C10.1426 10.0708 9.8474 10.1923 9.49996 10.1923Z" fill="#0D7FF2"/>
</svg>
