<svg width="20" height="27" viewBox="0 0 20 27" fill="none" xmlns="http://www.w3.org/2000/svg">
<path d="M8.75 22.5H11.25V18.75H15V16.25H11.25V12.5H8.75V16.25H5V18.75H8.75V22.5ZM2.5 26.25C1.8125 26.25 1.22396 26.0052 0.734375 25.5156C0.244792 25.026 0 24.4375 0 23.75V11.25C0 10.5625 0.244792 9.97396 0.734375 9.48438C1.22396 8.99479 1.8125 8.75 2.5 8.75H3.75V6.25C3.75 4.52083 4.35938 3.04688 5.57812 1.82812C6.79688 0.609375 8.27083 0 10 0C11.7292 0 13.2031 0.609375 14.4219 1.82812C15.6406 3.04688 16.25 4.52083 16.25 6.25V8.75H17.5C18.1875 8.75 18.776 8.99479 19.2656 9.48438C19.7552 9.97396 20 10.5625 20 11.25V23.75C20 24.4375 19.7552 25.026 19.2656 25.5156C18.776 26.0052 18.1875 26.25 17.5 26.25H2.5ZM6.25 8.75H13.75V6.25C13.75 5.20833 13.3854 4.32292 12.6562 3.59375C11.9271 2.86458 11.0417 2.5 10 2.5C8.95833 2.5 8.07292 2.86458 7.34375 3.59375C6.61458 4.32292 6.25 5.20833 6.25 6.25V8.75Z" fill="white"/>
</svg>
