<svg width="20" height="12" viewBox="0 0 20 12" fill="none" xmlns="http://www.w3.org/2000/svg">
<path d="M14.7337 10.9635L16.2178 9.47935L11.2388 4.5003L7.88749 7.85159C7.50449 8.28247 6.83423 8.28247 6.45123 7.85159L0.32316 1.72352C-0.10772 1.34051 -0.10772 0.670257 0.32316 0.287253C0.706164 -0.095751 1.37642 -0.095751 1.75943 0.287253L7.16936 5.69719L10.5206 2.3459C10.9037 1.91502 11.5739 1.91502 11.9569 2.3459L17.6541 8.04309L19.1382 6.55895C19.4734 6.27169 20 6.4632 20 6.94195V11.2986C20 11.5859 19.7606 11.8253 19.4734 11.8253H15.1167C14.6858 11.8253 14.4464 11.2507 14.7337 10.9635Z" fill="#CBD5E1"/>
</svg>
