<svg width="236" height="182" viewBox="0 0 236 182" fill="none" xmlns="http://www.w3.org/2000/svg">
<path d="M137.344 163.825C129.051 154.984 123.61 145.549 120.042 136.763C116.24 134.262 112.727 131.279 109.628 127.866C102.01 119.481 97.2158 108.969 95.7969 97.7931C92.1325 106.013 89.2534 115.834 88.4957 127.176C87.5865 140.838 90.0111 152.566 93.2621 161.739C106.597 172.5 122.783 179.338 139.989 181.258C146.726 182.018 153.476 182.004 160.129 181.258C152.732 177.335 144.77 171.754 137.344 163.825Z" fill="url(#paint0_linear_2005_24787)"/>
<path d="M83.5227 127.217C84.5007 111.082 89.708 97.945 95.4387 88.0817C96.0586 76.1325 100.536 64.6668 108.291 55.4804C113.016 49.8856 118.761 45.3546 125.167 42.0668C112.92 43.9179 96.7749 48.9187 81.7732 61.6691C70.5873 71.1732 63.6994 81.893 59.4427 91.038C59.4427 91.5491 59.4289 92.074 59.4427 92.5851C59.8422 114.66 68.2316 135.823 83.0543 152.138C84.1564 153.354 85.2997 154.514 86.4569 155.66C84.2666 147.607 82.8752 138.02 83.5227 127.217Z" fill="url(#paint1_linear_2005_24787)"/>
<path d="M78.2741 58.1189C104.503 35.5604 134.396 36.486 140.637 36.8728C141.078 36.7899 141.532 36.707 141.973 36.6379C149.123 35.5604 156.355 35.9334 163.256 37.6464C172.886 40.05 184.03 37.9779 189.403 29.6065C194.775 21.2352 192.392 9.89377 183.162 6.26065C168.477 0.500153 152.456 -1.36476 136.656 0.997462C114.89 4.2576 95.0529 15.3503 80.8501 32.2036C69.4163 45.7691 62.2667 62.3184 60.1177 79.7657C64.333 72.6652 70.174 65.095 78.2741 58.1189Z" fill="url(#paint2_linear_2005_24787)"/>
<path d="M235.772 90.5131C235.882 89.256 235.951 88.0265 235.979 86.8109C233.678 92.5714 230.689 98.4562 226.79 104.313C213.4 124.441 195.905 134.331 187.309 138.476C192.117 135.271 211.747 121.401 217.423 95.2789C219.269 86.7832 219.186 79.075 218.415 72.8033C217.381 81.0228 215.411 89.629 212.036 98.1246C204.418 117.257 192.971 127.369 186.042 132.246C184.554 133.558 182.983 134.801 181.344 135.948C170.447 143.573 157.168 146.944 143.957 145.466C138.088 144.803 132.426 143.2 127.15 140.769C130.443 147.234 134.823 153.865 140.692 160.192C149.674 169.889 159.482 176.064 168.147 180.001C180.173 177.542 191.662 172.652 201.897 165.496C210.369 159.57 217.671 152.29 223.608 144.015C215.728 149.776 208.496 153.312 203.84 155.301C208.648 152.387 227.947 139.981 235.235 115.461C226.336 126.637 216.83 133.558 211.265 137.163C215.646 133.365 233.402 117.133 235.772 90.5131Z" fill="url(#paint3_linear_2005_24787)"/>
<path d="M212.691 55.3636C208.248 56.3012 203.362 58.1764 200.569 60.9237C197.777 63.671 195.86 68.4788 194.918 72.8397C193.965 68.4679 192.06 63.671 189.267 60.9237C186.475 58.1764 181.589 56.2903 177.145 55.3527C181.589 54.4151 186.464 52.54 189.267 49.7926C192.06 47.0453 193.977 42.2375 194.929 37.8766C195.882 42.2484 197.788 47.0453 200.58 49.7926C203.373 52.5509 208.259 54.426 212.691 55.3636Z" fill="url(#paint4_linear_2005_24787)"/>
<path d="M167.239 87.4176C159.3 89.1365 150.568 92.5743 145.579 97.6111C140.589 102.648 137.164 111.462 135.481 119.457C133.778 111.442 130.373 102.648 125.384 97.6111C120.394 92.5743 111.663 89.1165 103.723 87.3976C111.663 85.6787 120.374 82.2409 125.384 77.2041C130.373 72.1674 133.798 63.353 135.501 55.3582C137.204 63.373 140.609 72.1674 145.599 77.2041C150.588 82.2609 159.32 85.6987 167.239 87.4176Z" fill="url(#paint5_linear_2005_24787)"/>
<path d="M198.706 103.145C195.574 103.801 192.13 105.114 190.161 107.037C188.193 108.96 186.842 112.325 186.178 115.378C185.506 112.318 184.163 108.96 182.194 107.037C180.226 105.114 176.781 103.793 173.649 103.137C176.781 102.481 180.218 101.168 182.194 99.2451C184.163 97.322 185.514 93.9565 186.186 90.9039C186.857 93.9642 188.201 97.322 190.169 99.2451C192.137 101.176 195.582 102.489 198.706 103.145Z" fill="url(#paint6_linear_2005_24787)"/>
<path d="M0 57.9057C6.12908 59.2295 12.8695 61.8771 16.7212 65.7562C20.5729 69.6353 23.2171 76.4238 24.5163 82.5811C25.8308 76.4084 28.4597 69.6353 32.3114 65.7562C36.1631 61.8771 42.9036 59.2141 49.0327 57.8903C42.9036 56.5665 36.1784 53.9188 32.3114 50.0397C28.4597 46.1606 25.8155 39.3722 24.501 33.2149C23.1866 39.3876 20.5576 46.1606 16.7059 50.0397C12.8542 53.9342 6.1138 56.5819 0 57.9057Z" fill="url(#paint7_linear_2005_24787)"/>
<path d="M24.4383 181.808C18.7006 181.808 14.0575 177.159 14.0575 171.414V107.159C14.0575 101.414 18.7006 96.7646 24.4383 96.7646C30.1761 96.7646 34.8192 101.414 34.8192 107.159V171.414C34.8192 177.149 30.1761 181.808 24.4383 181.808Z" fill="url(#paint8_linear_2005_24787)"/>
<defs>
<linearGradient id="paint0_linear_2005_24787" x1="160.129" y1="181.823" x2="77.1238" y2="110.871" gradientUnits="userSpaceOnUse">
<stop stop-color="#3DABFF"/>
<stop offset="1" stop-color="#1D67FC"/>
</linearGradient>
<linearGradient id="paint1_linear_2005_24787" x1="125.167" y1="155.66" x2="26.6819" y2="98.673" gradientUnits="userSpaceOnUse">
<stop stop-color="#3DABFF"/>
<stop offset="1" stop-color="#1D67FC"/>
</linearGradient>
<linearGradient id="paint2_linear_2005_24787" x1="192.233" y1="79.7657" x2="121.646" y2="-37.1479" gradientUnits="userSpaceOnUse">
<stop stop-color="#3DABFF"/>
<stop offset="1" stop-color="#1D67FC"/>
</linearGradient>
<linearGradient id="paint3_linear_2005_24787" x1="235.979" y1="180.001" x2="128.793" y2="71.1853" gradientUnits="userSpaceOnUse">
<stop stop-color="#3DABFF"/>
<stop offset="1" stop-color="#1D67FC"/>
</linearGradient>
<linearGradient id="paint4_linear_2005_24787" x1="177.145" y1="72.8397" x2="212.104" y2="37.2988" gradientUnits="userSpaceOnUse">
<stop stop-color="#3DABFF"/>
<stop offset="1" stop-color="#1D67FC"/>
</linearGradient>
<linearGradient id="paint5_linear_2005_24787" x1="103.723" y1="119.457" x2="167.819" y2="55.9435" gradientUnits="userSpaceOnUse">
<stop stop-color="#3DABFF"/>
<stop offset="1" stop-color="#1D67FC"/>
</linearGradient>
<linearGradient id="paint6_linear_2005_24787" x1="173.649" y1="115.378" x2="198.117" y2="90.3282" gradientUnits="userSpaceOnUse">
<stop stop-color="#3DABFF"/>
<stop offset="1" stop-color="#1D67FC"/>
</linearGradient>
<linearGradient id="paint7_linear_2005_24787" x1="49.0327" y1="82.5811" x2="-0.332423" y2="33.5496" gradientUnits="userSpaceOnUse">
<stop stop-color="#3DABFF"/>
<stop offset="1" stop-color="#1D67FC"/>
</linearGradient>
<linearGradient id="paint8_linear_2005_24787" x1="34.8192" y1="181.808" x2="-4.36859" y2="172.241" gradientUnits="userSpaceOnUse">
<stop stop-color="#3DABFF"/>
<stop offset="1" stop-color="#1D67FC"/>
</linearGradient>
</defs>
</svg>
