<svg width="68" height="68" viewBox="0 0 68 68" fill="none" xmlns="http://www.w3.org/2000/svg">
<path d="M4.25 25.4056C4.25 18.0004 4.25 14.2978 5.69113 11.4695C6.9588 8.98155 8.98155 6.9588 11.4695 5.69113C14.2978 4.25 18.0004 4.25 25.4056 4.25H42.5943C49.9995 4.25 53.7021 4.25 56.5305 5.69113C59.0185 6.9588 61.0413 8.98155 62.3088 11.4695C63.75 14.2978 63.75 18.0004 63.75 25.4056V42.5943C63.75 49.9995 63.75 53.7021 62.3088 56.5305C61.0413 59.0185 59.0185 61.0413 56.5305 62.3088C53.7021 63.75 49.9995 63.75 42.5943 63.75H25.4056C18.0004 63.75 14.2978 63.75 11.4695 62.3088C8.98155 61.0413 6.9588 59.0185 5.69113 56.5305C4.25 53.7021 4.25 49.9995 4.25 42.5943V25.4056Z" fill="white"/>
<path d="M34.004 26.4577L26.6496 13.4788C26.8938 13.2302 27.1747 13.0671 27.4556 12.9575C25.2871 13.6713 24.2919 16.1067 24.2919 16.1067L10.8565 39.8108C10.6675 40.5541 10.615 41.225 10.6386 41.816H25.3028L34.004 26.4577Z" fill="#34A853"/>
<path d="M34.0042 26.4577L42.7054 41.816H57.3696C57.3932 41.225 57.3407 40.5541 57.1516 39.8108L43.7162 16.1067C43.7162 16.1067 42.7186 13.6713 40.5523 12.9575C40.8307 13.0671 41.1142 13.2302 41.3583 13.4788L34.0042 26.4577Z" fill="#FBBC05"/>
<path d="M34.0041 26.4592L41.3585 13.4804C41.1143 13.2318 40.8306 13.0687 40.5525 12.9591C40.232 12.8548 39.8882 12.7853 39.5153 12.7666H39.1266H28.8815H28.4929C28.1227 12.7826 27.7761 12.8522 27.4557 12.9591C27.1775 13.0687 26.8938 13.2318 26.6497 13.4804L34.0041 26.4592Z" fill="#188038"/>
<path d="M25.3049 41.8164L18.0346 54.6484C18.0346 54.6484 17.793 54.5307 17.4648 54.2874C18.4967 55.0815 19.4997 55.2498 19.4997 55.2498H48.0535C49.6287 55.2498 49.957 54.6484 49.957 54.6484C49.9621 54.6457 49.9649 54.6429 49.97 54.6404L42.7051 41.8164H25.3049Z" fill="#4285F4"/>
<path d="M25.3058 41.8164H10.6416C10.7151 43.5595 11.4713 44.5781 11.4713 44.5781L12.0227 45.5349C12.0621 45.5913 12.0857 45.6233 12.0857 45.6233L13.2856 47.7299L15.9795 52.4189C16.0583 52.6086 16.1502 52.7823 16.2473 52.948C16.2841 53.0043 16.3182 53.0657 16.3576 53.1193C16.3681 53.1352 16.3786 53.1514 16.3891 53.1673C16.7226 53.6378 17.0954 54.0014 17.4682 54.2874C17.7964 54.5335 18.038 54.6484 18.038 54.6484L25.3058 41.8164Z" fill="#1967D2"/>
<path d="M42.7056 41.8164H57.3696C57.296 43.5595 56.54 44.5781 56.54 44.5781L55.9885 45.5349C55.9492 45.5913 55.9256 45.6233 55.9256 45.6233L54.7256 47.7299L52.0318 52.4189C51.9529 52.6086 51.8611 52.7823 51.764 52.948C51.7273 53.0043 51.693 53.0657 51.6537 53.1193C51.6431 53.1352 51.6327 53.1514 51.6221 53.1673C51.2887 53.6378 50.9159 54.0014 50.543 54.2874C50.2149 54.5335 49.9733 54.6484 49.9733 54.6484L42.7056 41.8164Z" fill="#EA4335"/>
</svg>
