<svg width="18" height="21" viewBox="0 0 18 21" fill="none" xmlns="http://www.w3.org/2000/svg">
<path d="M16.1922 16.9999H5.80768C5.30255 16.9999 4.87499 16.8249 4.525 16.4749C4.175 16.1249 4 15.6974 4 15.1922V1.80768C4 1.30255 4.175 0.874992 4.525 0.524995C4.87499 0.174998 5.30255 0 5.80768 0H12.75L17.9999 5.24995V15.1922C17.9999 15.6974 17.8249 16.1249 17.4749 16.4749C17.1249 16.8249 16.6974 16.9999 16.1922 16.9999ZM12 5.99993V1.49996H5.80768C5.73075 1.49996 5.66023 1.53202 5.59612 1.59612C5.53202 1.66023 5.49996 1.73075 5.49996 1.80768V15.1922C5.49996 15.2692 5.53202 15.3397 5.59612 15.4038C5.66023 15.4679 5.73075 15.5 5.80768 15.5H16.1922C16.2692 15.5 16.3397 15.4679 16.4038 15.4038C16.4679 15.3397 16.5 15.2692 16.5 15.1922V5.99993H12ZM1.80768 20.9999C1.30255 20.9999 0.874992 20.8249 0.524995 20.4749C0.174998 20.1249 0 19.6974 0 19.1922V6H1.49996V19.1922C1.49996 19.2692 1.53202 19.3397 1.59612 19.4038C1.66023 19.4679 1.73075 19.5 1.80768 19.5H11.9999V20.9999H1.80768ZM5.49996 1.49996V5.99993V1.49996V5.99993V15.1922C5.49996 15.2692 5.49996 15.3397 5.49996 15.4038C5.49996 15.4679 5.49996 15.5 5.49996 15.5C5.49996 15.5 5.49996 15.4679 5.49996 15.4038C5.49996 15.3397 5.49996 15.2692 5.49996 15.1922V1.80768C5.49996 1.73075 5.49996 1.66023 5.49996 1.59612C5.49996 1.53202 5.49996 1.49996 5.49996 1.49996Z" fill="#BA1A1A"/>
</svg>
