<svg width="160" height="160" viewBox="0 0 160 160" fill="none" xmlns="http://www.w3.org/2000/svg">
<g clip-path="url(#clip0_2008_31953)">
<path d="M152.477 56.2385C157.431 56.2385 160 53.4863 160 48.5321V27.3395C160 9.26607 150.734 0 132.385 0H111.193C106.239 0 103.486 2.75229 103.486 7.61467C103.486 12.3853 106.239 15.1376 111.193 15.1376H131.835C140.183 15.1376 144.954 19.633 144.954 28.3486V48.5321C144.954 53.4863 147.615 56.2385 152.477 56.2385ZM7.52293 56.2385C12.4771 56.2385 15.1376 53.4863 15.1376 48.5321V28.3486C15.1376 19.633 19.8165 15.1376 28.2569 15.1376H48.8991C53.7615 15.1376 56.5137 12.3853 56.5137 7.61467C56.5137 2.75229 53.7615 0 48.8991 0H27.7064C9.3578 0 0 9.26607 0 27.3395V48.5321C0 53.4863 2.75229 56.2385 7.52293 56.2385ZM73.2113 95.78H74.0367C82.844 95.78 87.6147 91.0093 87.6147 82.202V54.8624C87.6147 51.4679 85.3213 49.1743 81.9267 49.1743C78.3487 49.1743 76.1467 51.4679 76.1467 54.8624V82.844C76.1467 83.67 75.596 84.1287 74.7707 84.1287H71.9267C68.7153 84.1287 66.2385 86.6053 66.2385 89.8167C66.2385 93.578 68.8073 95.78 73.2113 95.78ZM48.8991 75.4127C53.1193 75.4127 56.0551 72.4773 56.0551 68.2567V56.422C56.0551 52.2019 53.1193 49.2661 48.8991 49.2661C44.8624 49.2661 41.9266 52.2936 41.9266 56.422V68.2567C41.9266 72.4773 44.8624 75.4127 48.8991 75.4127ZM111.193 75.4127C115.229 75.4127 118.257 72.4773 118.257 68.2567V56.422C118.257 52.2936 115.229 49.2661 111.193 49.2661C106.973 49.2661 104.037 52.2019 104.037 56.422V68.2567C104.037 72.4773 106.973 75.4127 111.193 75.4127ZM79.7247 122.293C90.1833 122.293 100.826 117.798 108.349 110.275C109.449 109.266 110 107.798 110 105.963C110 102.661 107.431 100.275 104.22 100.275C102.477 100.275 101.285 100.826 99.6333 102.661C94.954 107.523 87.3393 110.917 79.7247 110.917C72.3853 110.917 64.8624 107.707 59.8165 102.661C58.4404 101.285 57.2477 100.275 55.1376 100.275C51.9266 100.275 49.3578 102.661 49.3578 105.963C49.3578 107.523 49.9083 108.899 51.1009 110.183C58.0734 118.165 69.0827 122.293 79.7247 122.293ZM27.7064 160H48.8991C53.7615 160 56.5137 157.339 56.5137 152.477C56.5137 147.615 53.7615 144.954 48.8991 144.954H28.2569C19.8165 144.954 15.1376 140.459 15.1376 131.651V111.468C15.1376 106.605 12.3853 103.853 7.52293 103.853C2.66055 103.853 0 106.605 0 111.468V132.661C0 150.826 9.3578 160 27.7064 160ZM111.193 160H132.385C150.734 160 160 150.826 160 132.661V111.468C160 106.605 157.339 103.853 152.477 103.853C147.523 103.853 144.954 106.605 144.954 111.468V131.651C144.954 140.459 140.183 144.954 131.835 144.954H111.193C106.239 144.954 103.486 147.615 103.486 152.477C103.486 157.339 106.239 160 111.193 160Z" fill="black"/>
</g>
<defs>
<clipPath id="clip0_2008_31953">
<rect width="160" height="160" fill="white"/>
</clipPath>
</defs>
</svg>
