<svg width="34" height="34" viewBox="0 0 34 34" fill="none" xmlns="http://www.w3.org/2000/svg">
<path d="M31.1666 15.583V11.6163C31.1666 10.0295 31.1666 9.23611 30.8578 8.63004C30.5862 8.0969 30.1527 7.66346 29.6196 7.39183C29.0135 7.08301 28.2201 7.08301 26.6333 7.08301H7.36659C5.77978 7.08301 4.98636 7.08301 4.38028 7.39183C3.84715 7.66346 3.4137 8.0969 3.14207 8.63004C2.83325 9.23611 2.83325 10.0295 2.83325 11.6163V16.7163C2.83325 18.3031 2.83325 19.0966 3.14207 19.7027C3.4137 20.2358 3.84715 20.6693 4.38028 20.9408C4.98636 21.2497 5.77978 21.2497 7.36659 21.2497H15.5833M16.9999 14.1663H17.007M24.0833 14.1663H24.0903M9.91659 14.1663H9.92367M27.2708 24.083V21.6038C27.2708 20.2346 26.1608 19.1247 24.7916 19.1247C23.4224 19.1247 22.3124 20.2346 22.3124 21.6038V24.083M17.3541 14.1663C17.3541 14.362 17.1956 14.5205 16.9999 14.5205C16.8043 14.5205 16.6458 14.362 16.6458 14.1663C16.6458 13.9707 16.8043 13.8122 16.9999 13.8122C17.1956 13.8122 17.3541 13.9707 17.3541 14.1663ZM24.4374 14.1663C24.4374 14.362 24.2789 14.5205 24.0833 14.5205C23.8876 14.5205 23.7291 14.362 23.7291 14.1663C23.7291 13.9707 23.8876 13.8122 24.0833 13.8122C24.2789 13.8122 24.4374 13.9707 24.4374 14.1663ZM10.2708 14.1663C10.2708 14.362 10.1122 14.5205 9.91659 14.5205C9.72099 14.5205 9.56242 14.362 9.56242 14.1663C9.56242 13.9707 9.72099 13.8122 9.91659 13.8122C10.1122 13.8122 10.2708 13.9707 10.2708 14.1663ZM22.0999 29.7497H27.4833C28.2767 29.7497 28.6734 29.7497 28.9764 29.5953C29.243 29.4594 29.4596 29.2428 29.5955 28.9762C29.7499 28.6731 29.7499 28.2765 29.7499 27.483V26.3497C29.7499 25.5562 29.7499 25.1595 29.5955 24.8565C29.4596 24.5899 29.243 24.3733 28.9764 24.2374C28.6734 24.083 28.2767 24.083 27.4833 24.083H22.0999C21.3064 24.083 20.9098 24.083 20.6068 24.2374C20.3401 24.3733 20.1235 24.5899 19.9877 24.8565C19.8333 25.1595 19.8333 25.5562 19.8333 26.3497V27.483C19.8333 28.2765 19.8333 28.6731 19.9877 28.9762C20.1235 29.2428 20.3401 29.4594 20.6068 29.5953C20.9098 29.7497 21.3064 29.7497 22.0999 29.7497Z" stroke="black" stroke-width="2" stroke-linecap="round" stroke-linejoin="round"/>
</svg>
