<svg width="20" height="16" viewBox="0 0 20 16" fill="none" xmlns="http://www.w3.org/2000/svg">
<path d="M0.0789012 15.7396V14.2012H3.06116C2.01184 13.2912 1.23932 12.3129 0.74359 11.2662C0.247863 10.2196 0 9.10057 0 7.90925C0 6.11307 0.530239 4.51544 1.59072 3.11637C2.6512 1.71729 4.00129 0.77055 5.64099 0.276136V1.8974C4.43126 2.3642 3.44506 3.14461 2.68241 4.23863C1.91975 5.33265 1.53842 6.55619 1.53842 7.90925C1.53842 8.8915 1.74027 9.79617 2.14395 10.6233C2.54764 11.4504 3.18736 12.2512 4.06311 13.0257V10.217H5.60154V15.7396H0.0789012ZM11.0256 15.8185C10.2498 15.8185 9.58579 15.5424 9.03353 14.9901C8.48126 14.4378 8.20513 13.7738 8.20513 12.998C8.20513 12.2432 8.46252 11.5956 8.97731 11.0552C9.4921 10.5148 10.1466 10.2275 10.9408 10.1933C11.2117 9.58448 11.6236 9.08777 12.1765 8.70315C12.7294 8.31853 13.3714 8.12623 14.1025 8.12623C14.9757 8.12623 15.7314 8.41288 16.3698 8.98619C17.0082 9.55949 17.3859 10.2985 17.5029 11.2031H17.6607C18.3064 11.2031 18.8576 11.4247 19.3146 11.8678C19.7715 12.311 20 12.8501 20 13.4852C20 14.1308 19.7768 14.6811 19.3303 15.1361C18.8839 15.591 18.3379 15.8185 17.6923 15.8185H11.0256ZM14.2564 6.70608C14.1105 5.96577 13.8517 5.28333 13.4803 4.65874C13.1088 4.03414 12.5601 3.38917 11.8343 2.7238V5.52264H10.2959V0H15.8185V1.53842H12.8362C13.7488 2.3458 14.4352 3.17223 14.8954 4.01773C15.3556 4.86322 15.6607 5.75934 15.8106 6.70608H14.2564ZM11.0256 14.2801H17.6923C17.9014 14.2801 18.0818 14.2041 18.2337 14.0523C18.3856 13.9004 18.4615 13.7199 18.4615 13.5108C18.4615 13.3017 18.3856 13.1213 18.2337 12.9694C18.0818 12.8175 17.9014 12.7416 17.6923 12.7416H16.1538V11.716C16.1538 11.1479 15.954 10.664 15.5542 10.2643C15.1545 9.86452 14.6706 9.66465 14.1025 9.66465C13.5345 9.66465 13.0555 9.84973 12.6656 10.2199C12.2758 10.59 12.0743 11.0361 12.0611 11.5581V11.7159H11.0256C10.6693 11.7159 10.3665 11.8405 10.1173 12.0897C9.86814 12.3389 9.74355 12.6417 9.74355 12.998C9.74355 13.3544 9.86814 13.6571 10.1173 13.9063C10.3665 14.1555 10.6693 14.2801 11.0256 14.2801Z" fill="#0D7FF2"/>
</svg>
