<svg width="48" height="48" viewBox="0 0 48 48" fill="none" xmlns="http://www.w3.org/2000/svg">
<g clip-path="url(#clip0_2005_22750)">
<path d="M12 10.9028C18.624 10.9028 24 16.2788 24 22.9028V24H1.09714C0.493714 24 0 23.5063 0 22.9028C0 16.2788 5.376 10.9028 12 10.9028Z" fill="#FBBB05"/>
<path d="M37.0971 12C37.0971 18.624 31.7211 24 25.0971 24H24V1.09714C24 0.493714 24.4937 0 25.0971 0C31.7211 0 37.0971 5.376 37.0971 12Z" fill="#E94335"/>
<path d="M36 37.0971C29.376 37.0971 24 31.7211 24 25.0971V24H46.9029C47.5063 24 48 24.4937 48 25.0971C48 31.7211 42.624 37.0971 36 37.0971Z" fill="#4285F4"/>
<path d="M10.9028 36C10.9028 29.376 16.2788 24 22.9028 24H24V46.9029C24 47.5063 23.5063 48 22.9028 48C16.2788 48 10.9028 42.624 10.9028 36Z" fill="#0F9D58"/>
</g>
<defs>
<clipPath id="clip0_2005_22750">
<rect width="48" height="48" fill="white"/>
</clipPath>
</defs>
</svg>
