<svg width="21" height="15" viewBox="0 0 21 15" fill="none" xmlns="http://www.w3.org/2000/svg">
<path d="M4.99996 14.9999C3.61792 14.9999 2.43908 14.5205 1.46345 13.5617C0.487817 12.6029 0 11.4311 0 10.0461C0 8.80381 0.39968 7.71119 1.19904 6.76824C1.9984 5.8253 2.98974 5.26665 4.17307 5.0923C4.49358 3.59743 5.24517 2.375 6.42786 1.425C7.61055 0.475 8.96792 0 10.5 0C12.3107 0 13.8467 0.630651 15.108 1.89195C16.3693 3.15326 16.9999 4.68926 16.9999 6.49996V7H17.3076C18.3615 7.08205 19.2403 7.50576 19.9442 8.27114C20.648 9.03652 20.9999 9.94613 20.9999 11C20.9999 12.1153 20.6153 13.0608 19.8461 13.8365C19.0769 14.6121 18.1346 14.9999 17.0192 14.9999H11.5577C11.0525 14.9999 10.625 14.8249 10.275 14.4749C9.92498 14.1249 9.74998 13.6974 9.74998 13.1922V7.7153L7.89996 9.53455L6.84614 8.49035L10.5 4.83653L14.1538 8.49035L13.1 9.53455L11.2499 7.7153V13.1922C11.2499 13.2692 11.282 13.3397 11.3461 13.4038C11.4102 13.4679 11.4807 13.5 11.5577 13.5H17C17.7 13.5 18.2916 13.2583 18.775 12.775C19.2583 12.2916 19.5 11.7 19.5 11C19.5 10.3 19.2583 9.7083 18.775 9.22496C18.2916 8.74163 17.7 8.49996 17 8.49996H15.5V6.49996C15.5 5.11663 15.0125 3.93746 14.0375 2.96246C13.0625 1.98746 11.8833 1.49996 10.5 1.49996C9.11663 1.49996 7.93746 1.98746 6.96246 2.96246C5.98746 3.93746 5.49996 5.11663 5.49996 6.49996H4.98073C4.0333 6.49996 3.21631 6.84163 2.52977 7.52496C1.84323 8.2083 1.49996 9.0333 1.49996 9.99996C1.49996 10.9666 1.84163 11.7916 2.52496 12.475C3.2083 13.1583 4.0333 13.5 4.99996 13.5H7.49996V14.9999H4.99996Z" fill="#0D7FF2"/>
</svg>
