<svg width="36" height="36" viewBox="0 0 36 36" fill="none" xmlns="http://www.w3.org/2000/svg">
<g clip-path="url(#clip0_2012_10602)">
<path d="M22.5 22.5H29.25V20.25H22.5V22.5Z" fill="#0D7FF2"/>
<path d="M27 31.5H33.75V29.25H27V31.5Z" fill="#0D7FF2"/>
<path d="M24.75 27H31.5V24.75H24.75V27Z" fill="#0D7FF2"/>
<path d="M19.1286 22.5C19.1205 21.5507 18.8673 20.6196 18.3933 19.7971C17.9194 18.9745 17.2409 18.2885 16.4236 17.8055L24.7503 3.375L22.803 2.25L14.2803 17.0168C13.2341 16.783 12.146 16.8152 11.1155 17.1106C10.085 17.406 9.14502 17.955 8.38155 18.7075C4.17 22.77 4.49613 32.2674 4.51155 32.67C4.52318 32.9605 4.64682 33.2352 4.85655 33.4366C5.06628 33.6379 5.34581 33.7502 5.63655 33.75H22.5016C22.7378 33.75 22.9679 33.6757 23.1594 33.5376C23.351 33.3996 23.4942 33.2048 23.5689 32.9808C23.6436 32.7568 23.6459 32.5149 23.5755 32.2896C23.5051 32.0642 23.3655 31.8667 23.1766 31.725C19.1945 28.7369 19.1286 22.5604 19.1286 22.5ZM13.4215 19.1217C14.322 19.1316 15.1839 19.4882 15.8281 20.1175C16.4722 20.7467 16.849 21.6001 16.8799 22.5C16.8799 22.5429 16.882 22.734 16.8988 23.0274L10.262 20.0758C10.6991 19.7154 11.2036 19.4454 11.746 19.2816C12.2884 19.1178 12.8579 19.0635 13.4215 19.1217ZM17.3809 31.5C16.4819 30.5843 15.9089 29.3984 15.7503 28.125H13.5003C13.581 29.3224 13.9551 30.4815 14.5897 31.5H12.0885C11.6258 30.04 11.3443 28.5287 11.2503 27H9.0003C9.07292 28.5241 9.32409 30.0344 9.74865 31.5H6.7503C6.78517 29.434 7.07655 24.8714 8.77833 21.8782L17.253 25.647C17.6606 27.7612 18.5291 29.7596 19.7967 31.5H17.3809Z" fill="#0D7FF2"/>
</g>
<defs>
<clipPath id="clip0_2012_10602">
<rect width="36" height="36" fill="white"/>
</clipPath>
</defs>
</svg>
