<svg width="19" height="24" viewBox="0 0 19 24" fill="none" xmlns="http://www.w3.org/2000/svg">
<path d="M8.25313 16.0906L14.9625 9.38125L13.2703 7.68906L8.25313 12.7063L5.75938 10.2125L4.06719 11.9047L8.25313 16.0906ZM9.5 23.75C6.74896 23.0573 4.47786 21.4789 2.68672 19.0148C0.895573 16.5508 0 13.8146 0 10.8063V3.5625L9.5 0L19 3.5625V10.8063C19 13.8146 18.1044 16.5508 16.3133 19.0148C14.5221 21.4789 12.251 23.0573 9.5 23.75ZM9.5 21.2563C11.5583 20.6031 13.2604 19.2969 14.6062 17.3375C15.9521 15.3781 16.625 13.201 16.625 10.8063V5.19531L9.5 2.52344L2.375 5.19531V10.8063C2.375 13.201 3.04792 15.3781 4.39375 17.3375C5.73958 19.2969 7.44167 20.6031 9.5 21.2563Z" fill="#9E9E9E"/>
</svg>
