<svg width="20" height="20" viewBox="0 0 20 20" fill="none" xmlns="http://www.w3.org/2000/svg">
<path d="M0.769221 6.92299V17.5895C0.769221 18.164 0.769221 18.4509 0.881004 18.6703C0.979342 18.8634 1.13613 19.0205 1.32911 19.1188C1.54829 19.2305 1.83536 19.2305 2.40865 19.2305H13.0769M4.87173 11.8462V4.05144C4.87173 2.90262 4.87173 2.32779 5.09531 1.889C5.29196 1.50303 5.60554 1.18945 5.99151 0.992798C6.4303 0.769221 7.00513 0.769221 8.15395 0.769221H15.9487C17.0975 0.769221 17.6717 0.769221 18.1104 0.992798C18.4964 1.18945 18.8105 1.50303 19.0071 1.889C19.2307 2.32779 19.2307 2.90221 19.2307 4.05101V11.8458C19.2307 12.9946 19.2307 13.5691 19.0071 14.0078C18.8105 14.3938 18.4964 14.708 18.1104 14.9046C17.6721 15.128 17.0988 15.128 15.9522 15.128H8.15056C7.004 15.128 6.42987 15.128 5.99151 14.9046C5.60554 14.708 5.29196 14.3939 5.09531 14.0079C4.87173 13.5692 4.87173 12.995 4.87173 11.8462Z" stroke="#0D7FF2" stroke-width="1.5" stroke-linecap="round" stroke-linejoin="round"/>
</svg>
