<svg width="21" height="15" viewBox="0 0 21 15" fill="none" xmlns="http://www.w3.org/2000/svg">
<path d="M0 15V12.7185C0 12.1895 0.136514 11.7175 0.409541 11.3024C0.682568 10.8872 1.04719 10.5643 1.50341 10.3334C2.47878 9.85636 3.45955 9.48855 4.44574 9.23C5.43192 8.97144 6.51582 8.84217 7.69741 8.84217C8.879 8.84217 9.9629 8.97144 10.9491 9.23C11.9353 9.48855 12.916 9.85636 13.8914 10.3334C14.3476 10.5643 14.7123 10.8872 14.9853 11.3024C15.2583 11.7175 15.3948 12.1895 15.3948 12.7185V15H0ZM17.4475 15V12.5922C17.4475 11.9185 17.2825 11.2764 16.9526 10.666C16.6227 10.0556 16.1548 9.53189 15.5488 9.09481C16.237 9.19744 16.8902 9.35632 17.5087 9.57146C18.1271 9.78659 18.7172 10.0409 19.279 10.3343C19.8093 10.6172 20.2188 10.9506 20.5077 11.3345C20.7965 11.7185 20.9409 12.1377 20.9409 12.5922V15H17.4475ZM7.69741 7.18421C6.70662 7.18421 5.86024 6.83322 5.15827 6.13125C4.45629 5.42928 4.10531 4.58289 4.10531 3.5921C4.10531 2.60132 4.45629 1.75493 5.15827 1.05296C5.86024 0.350987 6.70662 0 7.69741 0C8.6882 0 9.53458 0.350987 10.2366 1.05296C10.9385 1.75493 11.2895 2.60132 11.2895 3.5921C11.2895 4.58289 10.9385 5.42928 10.2366 6.13125C9.53458 6.83322 8.6882 7.18421 7.69741 7.18421ZM16.5592 3.5921C16.5592 4.58289 16.2075 5.42928 15.5041 6.13125C14.8006 6.83322 13.955 7.18421 12.9671 7.18421C12.8514 7.18421 12.704 7.17105 12.525 7.14474C12.3461 7.11842 12.1987 7.08948 12.083 7.0579C12.4877 6.5713 12.7988 6.03148 13.0161 5.43844C13.2335 4.8454 13.3422 4.22954 13.3422 3.59088C13.3422 2.95222 13.2313 2.33881 13.0096 1.75066C12.7879 1.1625 12.479 0.621049 12.083 0.126311C12.2303 0.0736816 12.3777 0.0394723 12.525 0.0236834C12.6724 0.00789446 12.8198 0 12.9671 0C13.955 0 14.8006 0.350987 15.5041 1.05296C16.2075 1.75493 16.5592 2.60132 16.5592 3.5921ZM1.53945 13.4606H13.8554V12.7185C13.8554 12.504 13.8017 12.3132 13.6945 12.1461C13.5873 11.979 13.4172 11.8329 13.1843 11.7079C12.3396 11.2724 11.4698 10.9425 10.5751 10.7181C9.68033 10.4938 8.72111 10.3816 7.69741 10.3816C6.67371 10.3816 5.71449 10.4938 4.81975 10.7181C3.925 10.9425 3.05526 11.2724 2.21052 11.7079C1.97762 11.8329 1.80755 11.979 1.70031 12.1461C1.59307 12.3132 1.53945 12.504 1.53945 12.7185V13.4606ZM7.69741 5.64476C8.26189 5.64476 8.74512 5.44377 9.1471 5.04179C9.54907 4.63981 9.75006 4.15658 9.75006 3.5921C9.75006 3.02763 9.54907 2.5444 9.1471 2.14242C8.74512 1.74044 8.26189 1.53945 7.69741 1.53945C7.13293 1.53945 6.6497 1.74044 6.24772 2.14242C5.84575 2.5444 5.64476 3.02763 5.64476 3.5921C5.64476 4.15658 5.84575 4.63981 6.24772 5.04179C6.6497 5.44377 7.13293 5.64476 7.69741 5.64476Z" fill="#505F76"/>
</svg>
