<svg width="27" height="25" viewBox="0 0 27 25" fill="none" xmlns="http://www.w3.org/2000/svg">
<path d="M13.5001 24.7727L11.5426 23.0176C9.27006 20.9701 7.3913 19.2039 5.90629 17.7189C4.42128 16.2338 3.24002 14.9007 2.36251 13.7195C1.48501 12.5382 0.87188 11.4526 0.523128 10.4626C0.174376 9.47256 0 8.46005 0 7.42505C0 5.31003 0.708754 3.54377 2.12626 2.12626C3.54377 0.708754 5.31003 0 7.42505 0C8.59505 0 9.70881 0.247502 10.7663 0.742505C11.8238 1.23751 12.7351 1.93501 13.5001 2.83502C14.2651 1.93501 15.1763 1.23751 16.2338 0.742505C17.2914 0.247502 18.4051 0 19.5751 0C21.6901 0 23.4564 0.708754 24.8739 2.12626C26.2914 3.54377 27.0002 5.31003 27.0002 7.42505C27.0002 8.46005 26.8258 9.47256 26.477 10.4626C26.1283 11.4526 25.5152 12.5382 24.6377 13.7195C23.7601 14.9007 22.5789 16.2338 21.0939 17.7189C19.6089 19.2039 17.7301 20.9701 15.4576 23.0176L13.5001 24.7727ZM13.5001 21.1276C15.6601 19.1926 17.4376 17.5332 18.8326 16.1495C20.2276 14.7657 21.3301 13.562 22.1401 12.5382C22.9501 11.5144 23.5126 10.6032 23.8276 9.80443C24.1426 9.00568 24.3001 8.21255 24.3001 7.42505C24.3001 6.07504 23.8501 4.95003 22.9501 4.05002C22.0501 3.15002 20.9251 2.70002 19.5751 2.70002C18.5176 2.70002 17.5389 2.99814 16.6389 3.5944C15.7388 4.19065 15.1201 4.95003 14.7826 5.87254H12.2176C11.8801 4.95003 11.2613 4.19065 10.3613 3.5944C9.46131 2.99814 8.48255 2.70002 7.42505 2.70002C6.07504 2.70002 4.95003 3.15002 4.05002 4.05002C3.15002 4.95003 2.70002 6.07504 2.70002 7.42505C2.70002 8.21255 2.85752 9.00568 3.17252 9.80443C3.48752 10.6032 4.05002 11.5144 4.86003 12.5382C5.67003 13.562 6.77254 14.7657 8.16755 16.1495C9.56256 17.5332 11.3401 19.1926 13.5001 21.1276Z" fill="#FFFFFC"/>
</svg>
